<svg xmlns="http://www.w3.org/2000/svg" viewBox="0 0 512 512">
  <defs>
    <linearGradient id="melonGradient" x1="0%" y1="0%" x2="100%" y2="100%">
      <stop offset="0%" style="stop-color:#dc2626"/>
      <stop offset="100%" style="stop-color:#ea580c"/>
    </linearGradient>
  </defs>
  <!-- Background circle -->
  <circle cx="256" cy="256" r="240" fill="#ffffff"/>
  <!-- Watermelon slice shape -->
  <path d="M256 60 L420 350 Q350 380 256 380 Q162 380 92 350 Z" fill="url(#melonGradient)"/>
  <!-- Seeds -->
  <ellipse cx="200" cy="240" rx="12" ry="18" fill="#1a1a1a" transform="rotate(-15, 200, 240)"/>
  <ellipse cx="256" cy="260" rx="12" ry="18" fill="#1a1a1a"/>
  <ellipse cx="312" cy="240" rx="12" ry="18" fill="#1a1a1a" transform="rotate(15, 312, 240)"/>
  <ellipse cx="230" cy="300" rx="10" ry="15" fill="#1a1a1a" transform="rotate(-10, 230, 300)"/>
  <ellipse cx="282" cy="300" rx="10" ry="15" fill="#1a1a1a" transform="rotate(10, 282, 300)"/>
  <!-- Green rind -->
  <path d="M92 350 Q162 380 256 380 Q350 380 420 350 L430 370 Q350 410 256 410 Q162 410 82 370 Z" fill="#16a34a"/>
  <!-- Outer green curve -->
  <path d="M82 370 Q162 410 256 410 Q350 410 430 370 L440 390 Q350 440 256 440 Q162 440 72 390 Z" fill="#15803d"/>
  <!-- Truck silhouette overlay (simplified) -->
  <g fill="#ffffff" opacity="0.3">
    <rect x="150" y="320" width="80" height="40" rx="4"/>
    <rect x="230" y="330" width="40" height="30" rx="2"/>
    <circle cx="170" cy="365" r="12"/>
    <circle cx="250" cy="365" r="12"/>
  </g>
</svg>
